<?xml version="1.0" encoding="UTF-8"?>
<svg id="Layer_1" xmlns="http://www.w3.org/2000/svg" version="1.1" viewBox="0 0 297.7 356.4">
  <!-- Generator: Adobe Illustrator 29.5.1, SVG Export Plug-In . SVG Version: 2.1.0 Build 141)  -->
  <defs>
    <style>
      .st0 {
        fill: #6fbcb2;
      }
    </style>
  </defs>
  <path class="st0" d="M148.8,356.3c-.3,0-.7,0-1-.2C33,313.7-3.7,179,.3,67c0-1.5,1.3-2.7,2.7-2.8C56.6,60.3,107.7,37.9,146.9.8c1.2-1,2.9-1,4,0,39.1,37.1,90.2,59.6,143.8,63.5,1.5,0,2.6,1.4,2.7,2.8,4,112-32.8,246.7-147.6,289.1-.3.1-.6.2-1,.2h0ZM6,69.9c-3.2,109,32.6,238.9,142.9,280.4,110.3-41.4,146-171.4,142.9-280.4-53.1-4.4-103.7-26.7-142.9-63C109.7,43.2,59.2,65.5,6,69.9h0Z"/>
  <path class="st0" d="M176.4,280.3c-5.2,0-11.4-4.1-11.4-15.8s.3-2.7,1-6.4c1.2-5.9,3-14.7,3.1-21.7.2-12.6-2.3-21.9-7.4-27.1-3.2-3.4-7.5-4.9-13.1-4.9s-9.7,1.6-13.1,4.9c-5,5.1-7.6,14.6-7.4,27.1.1,7,2,15.8,3.1,21.7.7,3.7,1,5.3,1,6.4,0,11.6-6.2,15.8-11.4,15.8s-10.6-2-14.6-6c-13.4-13.5-13.4-46.8-13.3-73.5v-5.1c0-11-3.4-19.2-7.2-28.7-4.8-11.8-10.3-25.2-10.3-47,0-34.6,24.3-38.2,34.8-38.2s12.6,2.9,20.2,6.1c6.8,2.7,13.8,5.7,18,5.7s11.2-2.8,18-5.7c7.6-3.1,14.9-6.1,20.2-6.1,10.5,0,34.8,3.8,34.8,38.2s-5.4,35.2-10.3,47c-3.9,9.5-7.2,17.7-7.2,28.7v5.1c0,26.7.2,60-13.3,73.5s-8.9,6-14.6,6h.4ZM148.8,198.6c7,0,12.9,2.3,17.2,6.7,6.2,6.3,9.3,17.2,9,31.3-.1,7.5-2,16.7-3.2,22.7-.4,2.2-.9,4.6-.9,5.2,0,9.2,4.3,10,5.6,10,4.2,0,7.5-1.4,10.5-4.3,11.7-11.7,11.6-45,11.6-69.3v-5.2c0-12.2,3.7-21.3,7.6-30.9,4.6-11.3,9.8-24.1,9.8-44.8s-18.1-32.4-28.9-32.4-11.2,2.8-18,5.7c-7.6,3.1-14.9,6.1-20.2,6.1s-12.6-2.9-20.2-6.1c-6.8-2.7-13.8-5.7-18-5.7-10.8,0-28.9,4.2-28.9,32.4s5.2,33.5,9.8,44.8c4,9.6,7.6,18.7,7.6,30.9v5.2c0,24.3,0,57.6,11.6,69.3,2.8,2.9,6.3,4.3,10.5,4.3s5.6-.7,5.6-10-.5-3-.9-5.2c-1.3-6.1-3.1-15.2-3.2-22.7-.3-14.1,2.8-25,9-31.3,4.4-4.5,10.2-6.7,17.2-6.7h-.2Z"/>
  <path class="st0" d="M102.1,123c-1.6,0-2.9-1.3-2.9-2.9,0-2.7,0-4.8.5-6.7.3-1.6,1.8-2.6,3.4-2.3s2.6,1.8,2.3,3.5c-.3,1.5-.4,3.4-.4,5.6s-1.3,2.9-2.9,2.9h0Z"/>
  <path class="st0" d="M116.2,175.3c-1.3,0-2.4-.8-2.8-2.1-1.7-5.4-3.7-10.5-5.6-15-1.2-2.8-2.2-5.4-3.2-8.3-.5-1.5.2-3.1,1.7-3.8,1.5-.5,3.1.2,3.8,1.7.9,2.7,2.1,5.3,3.1,8.1,1.9,4.6,4,9.7,5.8,15.5.4,1.6-.4,3.1-2,3.7-.3,0-.5.1-.8.1h0Z"/>
</svg>