<?xml version="1.0" encoding="UTF-8"?>
<svg id="Layer_1" xmlns="http://www.w3.org/2000/svg" version="1.1" viewBox="0 0 310 350">
  <!-- Generator: Adobe Illustrator 29.5.1, SVG Export Plug-In . SVG Version: 2.1.0 Build 141)  -->
  <defs>
    <style>
      .st0 {
        fill: #6fbcb2;
      }
    </style>
  </defs>
  <path class="st0" d="M83.6,70.3c-1.9,0-3.6-1.3-4.1-3.2-2.3-9.9-.6-24.5,6-31.9,7.4-8.3,20.5-10.7,30.6-5.6,2.1,1,2.9,3.5,1.8,5.6-1,2.1-3.5,2.9-5.6,1.8-6.8-3.4-15.7-1.8-20.6,3.7-4.5,5.1-5.8,17-4.1,24.5.5,2.2-.9,4.5-3.1,5h-.9Z"/>
  <path class="st0" d="M128.7,44.9h-.7c-.6,0-1.3-.2-1.9-.6-2.1-1-2.9-3.5-1.9-5.6.9-1.9,3-2.7,4.9-2.1.3,0,.7,0,1,.3,2.2.8,3.3,3.1,2.5,5.3-.6,1.7-2.2,2.8-3.9,2.8h0Z"/>
  <path class="st0" d="M102.5,343.9c-10.7,0-14.1-11.3-16.6-19.5-.2-.7-.4-1.4-.6-2.1-6.1-19.8-7.8-40.6-8.6-54.6,0-1.3-.2-3.3-.4-5.5-.9-11.2-1.6-21.7-.2-26.8,2.8-10.6,10.4-12.6,16.5-14.3,3.5-.9,6.5-1.8,8.7-3.9,2.8-2.7,4.6-6.7,6.6-10.9,1.8-3.8,3.6-7.7,6.3-11.4,10.1-13.3,21.1-19,36.9-19s6.2.2,9.7.6c11.1,1.2,21,7.1,29.4,17.5,2.3,2.9,3.8,6,5.2,9.1,1.1,2.5,2.2,4.9,3.7,6.9,2.4,3.2,5.7,5.8,9.2,8.6,1.1.8,2.2,1.7,3.2,2.6,2.8,2.3,5.3,3.8,7.7,5.2,5.4,3.1,10.4,6,12.4,16,2.3,11.7-1.9,43.2-3.5,53.3l-.3,2c-2.4,14.8-7.3,45.7-28.1,45.7s0,0,0,0h-1.1c-8.8-.5-12.5-13.4-16-28.9-.6-2.5-1-4.6-1.4-5.9-.9-2.8-1.6-5.6-2.4-8.3-5.9-20.7-9.4-30.7-24.4-30.7s-19.1,9-22.9,25c-1.2,5.1-2.4,10.4-4.5,15.6-.3.6-.5,1.4-.9,2.2-5.7,14.7-12.5,30.4-21.9,31.4h-1.7,0ZM151,184.3c-13.2,0-21.7,4.4-30.3,15.7-2.2,2.9-3.7,6.3-5.4,9.8-2.2,4.7-4.4,9.6-8.3,13.4-3.7,3.6-8.3,4.9-12.3,6-6,1.6-9.2,2.7-10.6,8.4-1.1,4.2,0,17.1.5,24.1.2,2.3.3,4.3.4,5.7,1.1,21.5,3.7,38.2,8.2,52.5.2.7.4,1.4.7,2.2,2.3,7.7,4.4,13.6,8.6,13.6s.5,0,.7,0c.3,0,3-.6,7.6-9.1,3.1-5.7,5.7-12.5,7.5-17,.3-.8.6-1.6.9-2.3,1.8-4.6,3-9.6,4.1-14.4,3.4-14.7,7.3-31.5,31-31.5s26.7,17,32.4,36.7c.8,2.6,1.5,5.4,2.4,8.1.5,1.6,1,3.8,1.6,6.4,1.1,4.7,2.4,10.5,4.2,15.3,2.4,6.6,4.2,7.2,4.2,7.2h.6c13.7,0,17.8-26.1,19.9-38.7l.3-2c1.9-11.7,5.5-40.7,3.6-50.3-1.2-6.3-3.5-7.5-8.4-10.4-2.5-1.4-5.6-3.2-8.9-6-1-.8-2-1.6-3.1-2.5-3.7-3-7.6-6.1-10.6-10.1-2-2.7-3.3-5.6-4.6-8.4-1.2-2.7-2.4-5.3-4.1-7.3-7-8.6-15-13.5-23.8-14.5-3.2-.4-6.1-.5-8.8-.5h-.2,0Z"/>
  <path class="st0" d="M223.5,126.5c-.5,0-1.1,0-1.6-.3-2.1-.9-3.1-3.3-2.3-5.4,11.8-28.7,18.1-51.8,18.1-66.6s-5.4-20.5-11.2-25.7c-18-16.2-32.6-10.8-48-5.1-11.2,4.1-22.8,8.4-35,3.5-2.5-1-5-2.1-7.5-3.1-13-5.5-26.4-11.2-39.7-8.6-13.8,2.7-26.2,14.7-29.5,28.7-6,25.1,7,54.1,19.2,77.5,1.1,2,.3,4.5-1.8,5.6-2,1.1-4.5.3-5.6-1.8-12.9-24.8-26.5-55.5-19.9-83.3,4.1-17.3,18.9-31.6,36-34.9,15.8-3.1,31,3.4,44.5,9.1,2.5,1.1,4.9,2.1,7.3,3,9.3,3.7,18.4.3,29.1-3.6,16.3-6,34.8-12.8,56.5,6.7,7.6,6.8,14,21.4,14,31.9,0,16.2-6.3,39.7-18.7,69.8-.7,1.6-2.2,2.6-3.8,2.6h-.1Z"/>
  <path class="st0" d="M163.2,40.6c-7.8,0-14.2-5.9-19.4-10.9-2.1-2-4.1-3.8-5.9-5.1-1.9-1.3-2.3-3.9-1-5.8s3.9-2.3,5.8-1c2.3,1.6,4.6,3.8,6.8,5.9,6.6,6.2,11.3,10.1,16.7,8.1,2.1-.8,4.5.2,5.4,2.4.8,2.1-.2,4.5-2.4,5.4-2.1.8-4.1,1.1-6,1.1h0Z"/>
  <path class="st0" d="M91.9,131.9c-5.2,0-9.8-1.5-12.7-5.7-1.3-1.9,1.7-.6,3.6-1.9s2-4.7,3.3-2.8c3.4,5,18.7-.4,24.5-2.5.7-.3,1.4-.5,2.1-.7,11.9-4.1,23.1-7.6,39.3-7.6h0c13.1,0,26.1,1.6,39.6,4.8,1.8.4,4.2,1.3,7.2,2.5,3.8,1.4,8.4,3.2,12.4,4.1,5.2,1.2,6.6.6,6.8.5,1.4-1.8,4-2.1,5.8-.7s2.2,4,.7,5.8c-5.3,6.9-18.3,2-28.7-1.9-2.5-1-5-1.9-6.2-2.2-12.9-3.1-25.3-4.6-37.8-4.6s-23,2.4-36.6,7.1c-.6.2-1.3.4-2,.7-5.6,2-14,5-21.5,5h.2Z"/>
  <path class="st0" d="M268.3,239.7h0l-226.7-1.3c-2.3,0-4.1-1.9-4.1-4.2s1.9-4.1,4.2-4.1h0l226.7,1.3c2.3,0,4.1,1.9,4.1,4.2s-1.9,4.1-4.2,4.1Z"/>
  <path class="st0" d="M152.5,167.2c-2.3,0-4.2-1.9-4.2-4.2v-18.3l-4,4.5c-1.5,1.7-4.2,1.8-5.9.3s-1.8-4.2-.3-5.9l11.3-12.5c1.2-1.3,3-1.7,4.6-1.1,1.6.6,2.7,2.2,2.7,3.9v29.1c0,2.3-1.9,4.2-4.2,4.2h0Z"/>
  <path class="st0" d="M164.4,150.9c-1.1,0-2.2-.4-3-1.2l-11.9-12.2c-1.6-1.6-1.6-4.3,0-5.9,1.6-1.6,4.3-1.6,5.9,0l11.9,12.2c1.6,1.6,1.6,4.3,0,5.9-.8.8-1.9,1.2-2.9,1.2Z"/>
</svg>