<?xml version="1.0" encoding="UTF-8"?>
<svg id="Layer_1" xmlns="http://www.w3.org/2000/svg" version="1.1" viewBox="0 0 310 350">
  <!-- Generator: Adobe Illustrator 29.5.1, SVG Export Plug-In . SVG Version: 2.1.0 Build 141)  -->
  <defs>
    <style>
      .st0 {
        fill: none;
        stroke: #6fbcb2;
        stroke-linecap: round;
        stroke-linejoin: round;
        stroke-width: 7px;
      }

      .st1 {
        fill: #6fbcb2;
      }
    </style>
  </defs>
  <g>
    <line class="st0" x1="171.6" y1="24.4" x2="173" y2="30.7"/>
    <line class="st0" x1="174.9" y1="40" x2="176.9" y2="48.8"/>
    <polyline class="st0" points="179 58.3 180.3 64.6 186.6 66.5"/>
    <line class="st0" x1="200" y1="70.3" x2="215.2" y2="74.8"/>
    <polyline class="st0" points="226.9 78.2 233 80 231.8 86.4"/>
    <line class="st0" x1="229.7" y1="96.9" x2="224.4" y2="123.7"/>
    <polyline class="st0" points="221.3 139.5 220 145.9 225.7 149"/>
    <line class="st0" x1="239.8" y1="156.7" x2="261" y2="168.3"/>
    <line class="st0" x1="268.1" y1="172.1" x2="273.7" y2="175.3"/>
  </g>
  <path class="st1" d="M217.4,347.1c-31.9,0-38.1-34.4-45.4-74.2-1-5.2-1.9-10.7-3-16.2-.6-3.6-1.5-7.1-2.4-10.6-2.3-8.2-9.5-8.8-11.6-8.8s-9.4.6-11.6,8.8c-1,3.4-1.7,6.9-2.4,10.6-1.1,5.6-2,11-3,16.3-7.2,39.9-13.5,74.2-45.4,74.2s-57.1-46.8-57.1-108.8c2.2-37.4,0-30.2-16.9-72.5-8.2-16.7-12.6-36-12.6-55.7C6,51.1,45.1,2.8,93.2,2.8s18.6,1.7,42.8,7.9c12,4.1,24.7,4.2,35.8.2,15.1-5.4,30.3-8.1,45.1-8.1,48.1,0,87.1,48.2,87.2,107.4,0,47.7-10.3,52.6-18.6,69.3-10.9,22.1-10.7,32.8-11,56.7v2c0,62.1-24.6,108.8-57.1,108.8h0ZM155,213.2c16.6,0,30.5,10.7,34.8,26.6,1.1,4,2,8.1,2.8,12.3,1.1,5.6,2,11.1,3,16.4,3.2,18.1,6.1,33.7,10.3,43.8,4.5,10.7,8.6,10.7,11.3,10.7,6.9,0,14.8-8,21-21.4,7.8-16.7,12.1-39.2,12.1-63.3s7-57.7,19.4-83c6.6-13.5,10.1-29,10.1-45,0-46-28.5-80.3-63.1-83.4-18.1-1.6-24.6,2.3-37.1,6.7-16.2,5.7-34.5,5.7-51.6,0-12.7-4.3-24.8-6.6-35-6.6-34.8,0-62.1,37.4-63.1,83.4-1,46,8.9,43.9,15.6,57.2,12.4,25.3,13.7,40.9,13.9,68.4v2.4c0,24.1,4.3,46.7,12.1,63.3,6.2,13.4,14.1,21.4,21,21.4s6.8,0,11.3-10.7c4.3-10.1,7.1-25.7,10.3-43.8,1-5.3,1.9-10.8,3-16.5.8-4.2,1.7-8.3,2.8-12.3,4.3-15.9,18.3-26.6,34.8-26.6h.3,0Z"/>
</svg>