<?xml version="1.0" encoding="UTF-8"?>
<svg id="Layer_1" xmlns="http://www.w3.org/2000/svg" version="1.1" viewBox="0 0 310 350">
  <!-- Generator: Adobe Illustrator 29.5.1, SVG Export Plug-In . SVG Version: 2.1.0 Build 141)  -->
  <defs>
    <style>
      .st0 {
        stroke-width: 7.3px;
      }

      .st0, .st1 {
        fill: none;
        stroke: #6fbcb2;
        stroke-linecap: round;
        stroke-linejoin: round;
      }

      .st1 {
        stroke-width: 11px;
      }

      .st2 {
        fill: #005882;
      }
    </style>
  </defs>
  <path class="st0" d="M134.3,106.8c-28.7,88.5-40.5,128.2-62.8,214.9"/>
  <path class="st2" d="M152.4,97.4c-1.8-3.6-6.3-6.8-12.1-8.8h0c-9.4-3.1-17.1-1.4-19.2,4.3l-.6,1.5c-1.2,3.2-2.6,6.8-3.1,10.6v1c-.3,5.1,4.6,10.1,13,12.9,3,1,6,1.5,8.7,1.5s4.6-.4,6.3-1.2c1.9-1,3.2-2.4,4-4.2v-.2c1.2-3,2.1-5.9,2.9-8.5.3-1,.6-2,.8-2.8.6-2.1.4-4.2-.5-6.2h-.2Z"/>
  <path class="st1" d="M124.4,96.3c-9.5-4.9-15.5-10.1-14.3-13.2,1.6-4.2,16-2.7,32.3,3.4,16.3,6,28.2,14.4,26.6,18.6-1.2,3.3-10.4,3.1-22.3,0"/>
  <path class="st1" d="M110.1,83.1c7.5-27.6,11.8-46.7,19.9-76.6"/>
  <path class="st1" d="M168.5,105.9c11.4-7.5,21.5-17.7,26.7-30.3,5.2-12.6,5.3-30.2-2.4-41.4-4.7-6.9-11.8-11.9-19.1-15.8-13.4-7.1-28.5-11.2-43.6-11.8"/>
  <path class="st1" d="M174.2,101.8c29,15.9,57.3,33.4,84.5,52.2"/>
  <path class="st1" d="M199.1,56c33.1,10.4,50.8,18.6,82.5,32.7"/>
  <g>
    <path class="st1" d="M106.5,174.7c14.3,1,25.6-12.3,39.6-15.2,12.8-2.7,26.5,4.2,33.9,14.9,7.5,10.7,9.4,24.4,7.8,37.3-1.6,12.9-6.3,25.1-11.4,37.1-5.1,12-10.4,23.9-13.3,36.6-3.5,15.5-3.3,31.9-9.9,46.3-3.1,6.6-9.5,13.4-16.7,11.6-4.5-1.1-7.5-5.5-8.6-9.9s-.7-9.1-.7-13.7c0-11.8-2.4-23.6-7.2-34.4-1.9-4.4-4.8-9-9.6-10.1-6.7-1.5-12.3,5.1-15.2,11.3-5,10.7-7.4,22.6-7,34.4.3,6.7,1,14.6-4.1,19.1-5.5,4.8-14.8,2-19.3-3.7-4.5-5.8-5.5-13.4-6.6-20.6-2.7-18.3-6.6-36.5-12.9-53.9-4.7-13-10.7-25.6-14.2-39s-4.4-28,1.1-40.7c5.5-12.7,18.5-22.9,32.4-22.1,14.9.9,27,13.8,41.7,14.8h.2,0Z"/>
    <path class="st1" d="M57.1,184.4c-3.8,2.9-6.6,7.1-7.7,11.9"/>
    <path class="st1" d="M49.4,220.6c2.3,10.5,5.9,20.7,10.8,30.3"/>
  </g>
</svg>