<?xml version="1.0" encoding="UTF-8"?>
<svg id="Layer_1" xmlns="http://www.w3.org/2000/svg" version="1.1" viewBox="0 0 310 350">
  <!-- Generator: Adobe Illustrator 29.5.1, SVG Export Plug-In . SVG Version: 2.1.0 Build 141)  -->
  <defs>
    <style>
      .st0 {
        fill: none;
        stroke: #6fbcb2;
        stroke-linecap: round;
        stroke-linejoin: round;
        stroke-width: 10.7px;
      }
    </style>
  </defs>
  <g id="Layer_11">
    <g>
      <g>
        <polyline class="st0" points="21.7 85.8 64.9 69.8 143 37.5"/>
        <polyline class="st0" points="21.2 124.4 77.7 104.8 148.3 53.1"/>
        <path class="st0" d="M149.9,58.7l-7.1-21.6c-3.4-10.4,2.3-21.7,12.7-25.1,5.1-1.7,10.5-1.3,15.2,1.1,4.7,2.4,8.3,6.5,9.9,11.6l6.7,20.4-37.5,13.6h.1Z"/>
        <line class="st0" x1="167.6" y1="52.3" x2="176.5" y2="79.3"/>
        <line class="st0" x1="190.1" y1="74.6" x2="164.3" y2="83.5"/>
        <line class="st0" x1="11.4" y1="89.2" x2="7" y2="91.3"/>
      </g>
      <g>
        <path class="st0" d="M200.8,128.4c17.8,1.2,31.9-15.3,49.4-19,16-3.3,33,5.3,42.3,18.6s11.7,30.4,9.8,46.5c-1.9,16.1-7.9,31.4-14.2,46.3-6.3,14.9-13,29.8-16.6,45.6-4.4,19.3-4.1,39.8-12.4,57.8-3.8,8.3-11.9,16.7-20.8,14.4-5.6-1.4-9.4-6.8-10.8-12.3-1.4-5.5-.9-11.3-.9-17,0-14.7-3-29.4-9-42.9-2.4-5.5-6-11.3-11.9-12.6-8.4-1.8-15.3,6.4-18.9,14.1-6.3,13.4-9.3,28.2-8.7,42.9.3,8.4,1.3,18.3-5.1,23.8-6.9,6-18.5,2.5-24.1-4.7s-6.9-16.7-8.2-25.7c-3.4-22.8-8.3-45.5-16.1-67.3-5.8-16.3-13.3-32-17.7-48.7s-5.4-34.9,1.4-50.8c6.9-15.9,23-28.5,40.5-27.5,18.5,1.1,33.6,17.1,51.9,18.4h.1Z"/>
        <path class="st0" d="M147.2,145.8c-4.8,3.6-8.3,8.9-9.6,14.8"/>
        <path class="st0" d="M137.7,191c2.4,13.1,6.1,25.9,11.2,37.8"/>
      </g>
    </g>
  </g>
</svg>