<?xml version="1.0" encoding="UTF-8"?>
<svg id="Layer_1" xmlns="http://www.w3.org/2000/svg" version="1.1" viewBox="0 0 310 350">
  <!-- Generator: Adobe Illustrator 29.5.1, SVG Export Plug-In . SVG Version: 2.1.0 Build 141)  -->
  <defs>
    <style>
      .st0 {
        fill: none;
        stroke: #6fbcb2;
        stroke-linecap: round;
        stroke-linejoin: round;
        stroke-width: 9.4px;
      }
    </style>
  </defs>
  <g id="Layer_11">
    <path class="st0" d="M206.7,82.6c13,2.1,25.2,8.5,34.1,17.8,8.8,9.3,14.2,21.4,15.1,33.8.8-12.4,6.2-24.5,15.1-33.8s21-15.6,34.1-17.8c-13-2.1-25.2-8.5-34.1-17.8s-14.2-21.4-15.1-33.8c-.8,12.4-6.2,24.5-15.1,33.8-8.9,9.3-21,15.6-34.1,17.8"/>
    <path class="st0" d="M5,286.5c9.2,1.3,17.8,5.4,24,11.2,6.2,5.9,10,13.5,10.6,21.4.6-7.9,4.4-15.5,10.6-21.4,6.2-5.9,14.8-9.9,24-11.2-9.2-1.3-17.8-5.4-24-11.2-6.2-5.9-10-13.5-10.6-21.4-.6,7.9-4.4,15.5-10.6,21.4s-14.8,9.9-24,11.2"/>
    <path class="st0" d="M277.1,94.7c1.9,8.9,2.1,18.2.9,27.2-2.2,17.4-9,34-16.2,50.3-7.1,16.2-14.8,32.4-18.8,49.5-5,20.9-4.6,43.2-14.1,62.7-4.4,9-13.5,18.1-23.6,15.7-6.4-1.5-10.6-7.4-12.2-13.4s-1.1-12.3-1-18.5c0-15.9-3.4-31.9-10.2-46.5-2.8-5.9-6.8-12.3-13.5-13.7-9.5-1.9-17.4,7-21.5,15.3-7.1,14.5-10.6,30.6-9.9,46.6.4,9.1,1.4,19.8-5.8,25.9-7.8,6.5-21,2.7-27.4-5.1-6.4-7.8-7.8-18.1-9.3-27.9-3.8-24.8-9.4-49.4-18.3-73.1-6.6-17.6-15.1-34.7-20.1-52.8-4.9-18.1-6.2-37.9,1.6-55.1,7.8-17.2,26.2-31,46-29.9,21.1,1.2,38.2,18.6,59,19.9,20.3,1.3,36.3-16.6,56.2-20.6,9.9-2,20.1,0,29,4.3"/>
    <path class="st0" d="M90.2,86.3c-7,4-11.3,11.9-10.6,19.5"/>
    <path class="st0" d="M81.3,135.1c2.9,15.2,9,29.9,17.8,42.9"/>
  </g>
</svg>