<?xml version="1.0" encoding="UTF-8"?>
<svg id="Layer_1" xmlns="http://www.w3.org/2000/svg" version="1.1" viewBox="0 0 310 350">
  <!-- Generator: Adobe Illustrator 29.5.1, SVG Export Plug-In . SVG Version: 2.1.0 Build 141)  -->
  <defs>
    <style>
      .st0 {
        fill: none;
        stroke: #6fbcb2;
        stroke-linecap: round;
        stroke-linejoin: round;
        stroke-width: 7.7px;
      }
    </style>
  </defs>
  <g id="Layer_11">
    <g>
      <path class="st0" d="M69,172.4c-14.1-17.6-3.8-72,7.6-90.2,9.9-16,23-19.4,33.1-18.9,18.5.9,25.4,12.2,31.4,23.3,6.9,12.9,25.2,75.9,2.6,89.3-5.1,3-21.6,4.9-38.8,4.9s-32.6-4.4-35.8-8.5h0Z"/>
      <path class="st0" d="M161.4,172.4c-14.1-17.6-3.8-72,7.6-90.2,9.9-16,23-19.4,33.1-18.9,18.5.9,25.4,12.2,31.4,23.3,2.2,4.2,5.6,13.5,8.5,24.7"/>
      <path class="st0" d="M169.9,204.3c-14.1-17.6-3.8-72,7.6-90.2,9.9-16,23-19.4,33.1-18.9,18.5.9,25.4,12.2,31.4,23.3,6.9,12.9,25.2,75.9,2.6,89.3-5.1,3-21.6,4.9-38.8,4.9s-32.6-4.4-35.8-8.5h-.1Z"/>
      <path class="st0" d="M241.9,116.8c2.6-7.9,18.9-51,41.6-43.3,19.6,6.7,21.8,53.5,20.9,71.9-1.3,26-32.1,24.2-48.8,21.8"/>
      <path class="st0" d="M66,111.9c-3.5-8.9-13.2-40.9-36.6-39.4-20.6,1.4-24.7,54.5-23.8,72.8,1.6,31,45.1,22.4,56.5,20.6"/>
      <path class="st0" d="M200,191.6c3.5,14.3,7,28.6,10.6,42.9,1.3,5.4,2.7,10.9,6.1,15.4,3.4,4.5,8.3,7.4,13.2,10.1,17.5,9.8,35.5,18.7,53.9,26.9"/>
      <path class="st0" d="M217.7,212.7c.8,5.5,4.5,25.2,7.2,29.9,2.7,4.8,7.1,8.2,11.4,11.5,15.4,11.7,31.2,22.6,47.4,32.7"/>
      <path class="st0" d="M151.3,193.2c-4.5,2.7-9.1,5.5-13.6,8.2"/>
      <path class="st0" d="M158.1,204.2c-3.5,4.2-6.9,8.4-10.4,12.6"/>
      <path class="st0" d="M276.1,189.7c4.5,2.7,9.1,5.5,13.6,8.2"/>
      <path class="st0" d="M269.3,200.6c3.5,4.2,6.9,8.4,10.4,12.6"/>
    </g>
  </g>
</svg>