<?xml version="1.0" encoding="UTF-8"?>
<svg id="Layer_1" xmlns="http://www.w3.org/2000/svg" version="1.1" viewBox="0 0 310 350">
  <!-- Generator: Adobe Illustrator 29.5.1, SVG Export Plug-In . SVG Version: 2.1.0 Build 141)  -->
  <defs>
    <style>
      .st0 {
        fill: #6fbcb2;
      }
    </style>
  </defs>
  <g id="NewGroupe6">
    <g id="NewGroup0-9">
      <g>
        <g>
          <path class="st0" d="M215.6,115.4c0,5.7,8.7,5.7,8.7,0,0-27.9-22.6-50.6-50.4-50.6s-5.7,8.7,0,8.7c23,0,41.7,18.8,41.7,41.9h0Z"/>
          <path class="st0" d="M234.3,169.2c9-26.2,12.9-45.4,12.5-61.9-.4-17.2-7.2-33.4-19.4-45.8-12.1-12.4-28.3-19.5-45.3-20.2-12.9-.5-25.5,2.7-36.5,9.1-12.9,7-25.5,7-38.4,0-11-6.4-23.6-9.6-36.5-9.1-13.2.5-25.9,5-36.7,12.8-4.6,3.3.6,10.4,5.2,7,9.4-6.8,20.4-10.7,32-11.1,11.2-.4,22.2,2.4,31.9,8h0c15.6,8.5,31.4,8.5,46.9,0h0c9.6-5.7,20.6-8.4,31.9-8,14.9.6,28.9,6.8,39.5,17.6,10.6,10.8,16.6,25,16.9,39.9.2,10-.9,27.4-13.3,62.4-34.1,4.5-62,33.9-60.6,69.3,1.1,28.7,7.8,36.8,20.5,49.4-1.9,7.2-4.7,11.7-11.5,11.7s-10-7.4-14.2-19.9c-4.8-14.1-8.3-28.6-12.5-42.9-6.4-22-34.1-22-40.5,0-4.2,14.3-7.7,28.8-12.5,42.9-2.3,6.7-6.5,20.4-15.7,19.8-8.5-.5-10.3-12-11.3-18.5-4.1-26.9-15-52.2-25.6-76.6-14-32.3-27.2-62.9-26.4-97.5.2-10.6,3.4-21,9.1-30.1,3-4.8-4.4-9.4-7.3-4.7-6.5,10.4-10.2,22.3-10.4,34.5-.8,36.5,13.4,69.4,27.1,101.2,10.3,23.9,21,48.7,25,74.5,1.8,11.4,6.1,25,19.6,25.8,14,.9,20.5-14.7,24.3-25.8,4.8-14.2,8.4-28.8,12.6-43.2,4.1-13.8,19.7-13.8,23.8,0,4.2,14.4,7.8,29,12.6,43.2,5.8,17.2,13.3,25.9,22.4,25.9s16.1-6.8,18.7-14.1c11.7,8.8,26.3,14.1,42.1,14.1s27.9-4.3,39.6-12.3c4.7-3.2-.3-10.4-5-7.1-10.2,7-22.1,10.7-34.6,10.7-33.6,0-61-27.4-61-61.1s27.4-61.1,61-61.1,61.9,27.4,61,61.1c.5,16.4-3.5,25.9-9.3,32.5-3,4.8,4.4,9.4,7.3,4.7,7-11.1,10.7-24,10.7-37.2,0-38.4-31.2-69.7-69.5-69.9h-.2Z"/>
        </g>
        <path class="st0" d="M201.3,245.6v-13.1h21.8c2.4,0,4.4-2,4.4-4.4v-21.8h13.1v21.8c0,2.4,2,4.4,4.4,4.4h21.8v13.1h-21.8c-2.4,0-4.4,2-4.4,4.4v21.8h-13.1v-21.8c0-2.4-2-4.4-4.4-4.4h-21.8,0ZM223.1,280.5h21.8c2.4,0,4.4-2,4.4-4.4v-21.8h21.8c2.4,0,4.4-2,4.4-4.4v-21.8c0-2.4-2-4.4-4.4-4.4h-21.8v-21.8c0-2.4-2-4.4-4.4-4.4h-21.8c-2.4,0-4.4,2-4.4,4.4v21.8h-21.8c-2.4,0-4.4,2-4.4,4.4v21.8c0,2.4,2,4.4,4.4,4.4h21.8v21.8c0,2.4,2,4.4,4.4,4.4h0Z"/>
      </g>
    </g>
  </g>
</svg>