<?xml version="1.0" encoding="UTF-8"?>
<svg id="Layer_1" xmlns="http://www.w3.org/2000/svg" version="1.1" viewBox="0 0 310 350">
  <!-- Generator: Adobe Illustrator 29.5.1, SVG Export Plug-In . SVG Version: 2.1.0 Build 141)  -->
  <defs>
    <style>
      .st0 {
        fill: none;
        stroke: #6fbcb2;
        stroke-linecap: round;
        stroke-linejoin: round;
        stroke-width: 7.7px;
      }
    </style>
  </defs>
  <path class="st0" d="M232.6,222.6l52.2,62.6,11.7-10c9.2-7.8,10.1-21.8,2.3-30.8l-37.9-46.1-28.1,24.3h-.2Z"/>
  <line class="st0" x1="246.6" y1="210.4" x2="221.9" y2="180.1"/>
  <path class="st0" d="M227,110.8c17.7,20.5,15.5,51.5-5.2,69.3-20.5,17.7-51.5,15.5-69.3-5.2-17.7-20.5-15.5-51.5,5.1-69.3,20.5-17.7,51.5-15.5,69.3,5.1h.1,0Z"/>
  <path class="st0" d="M226.1,110.2c.2-2.5.2-5.2.3-8.1v-4.3c-.7-19.7-8.4-30.9-20.2-39.1-11.9-7.9-28.6-11.8-45.2-11.8s-30.5,3.2-40.7,7.8l-4.1,1.9-4.1-1.9c-8.2-3.7-19.7-6.5-31.8-7.4l-20.9.3c-12.4,1.4-24.2,5.1-33.2,11.1-11.8,8.1-19.5,19.5-20.2,39.1v4.3c.2,27.7,6.6,37.7,14.3,51.8,7.9,13.7,17.1,31.3,16.8,63.9,0,37.8,6.4,60,13.3,71.8,7.1,11.8,9.5,13.5,17.2,13.5s11-8.2,11.3-12.6c1.5-16-1.1-41,6.7-67.6,2.3-7.4,5.1-16.6,10.5-25,7.4-11.2,27.6-20,40.1,0,5.3,8.5,8.2,17.6,10.5,25,6.1,20.3,7.8,41.5,6.4,57.7-2,22.6,11.2,22.5,11.7,22.5,7,0,10.1-1.8,17.1-13.5,7-11.8,13.4-33.9,13.4-71.8s.4-15.4,1.4-21.9"/>
  <line class="st0" x1="116.1" y1="56.6" x2="144.3" y2="71.5"/>
</svg>