<?xml version="1.0" encoding="UTF-8"?>
<svg id="Layer_1" xmlns="http://www.w3.org/2000/svg" version="1.1" viewBox="0 0 310 350">
  <!-- Generator: Adobe Illustrator 29.5.1, SVG Export Plug-In . SVG Version: 2.1.0 Build 141)  -->
  <defs>
    <style>
      .st0 {
        fill: none;
        stroke: #6fbcb2;
        stroke-linecap: round;
        stroke-linejoin: round;
        stroke-width: 8.8px;
      }
    </style>
  </defs>
  <g id="Layer_11">
    <g>
      <path class="st0" d="M226.4,50.3c9.5.7,17.1-8.2,26.4-10.2,8.6-1.8,17.7,2.8,22.6,10,5,7.1,6.3,16.3,5.2,24.9-1,8.6-4.2,16.8-7.6,24.8s-6.9,16-8.9,24.5c-2.3,10.3-2.2,21.3-6.6,31-2.1,4.4-6.3,9-11.1,7.7-3-.8-5-3.6-5.8-6.6-.7-3-.5-6.1-.5-9.1,0-7.9-1.6-15.8-4.8-23-1.3-2.9-3.2-6.1-6.4-6.7-4.5-1-8.2,3.4-10.1,7.6-3.4,7.2-5,15.1-4.7,23,.2,4.5.7,9.8-2.7,12.8-3.7,3.2-9.9,1.4-12.9-2.5s-3.7-8.9-4.4-13.8c-1.8-12.2-4.4-24.4-8.6-36.1-3.1-8.7-7.1-17.1-9.4-26.1-2.3-9-2.9-18.7.8-27.2s12.3-15.3,21.6-14.8c9.9.6,18,9.2,27.7,9.9h.2,0Z"/>
      <path class="st0" d="M195.2,57.9c-2.1,1.9-3.7,4.3-4.7,7"/>
      <path class="st0" d="M190.8,81.7c1.1,6.4,3.6,12.5,7.2,17.9"/>
      <path class="st0" d="M294.8,61.8c2.6-1.3,5.2-2.7,7.8-4"/>
      <path class="st0" d="M294.1,95.3c2.3,1.6,4.7,3.2,7,4.9"/>
      <path class="st0" d="M152.4,58.6c2.6,1,5.2,2.1,7.7,3.1"/>
      <path class="st0" d="M154.2,98.2c2.5-1.2,5.1-2.5,7.6-3.7"/>
      <path class="st0" d="M65.8,196.4c4.9-2.6,9.5-5.7,14-9,5.7-4.2,11.2-8.7,16.8-12.8,11.7-8.7,25.2-16.5,39.8-16.6,24.4-.2,44,20.3,67.8,25.9,11.8,2.8,25.8,2.6,33.4,12,2.5,3.1,4,7.5,2.3,11.2h0c-2.8,5.9-11.1,5.8-17.6,4.8-18.1-2.9-36.2-5.8-54.3-8.7"/>
      <path class="st0" d="M95.1,259.1c7.5-5.2,15.2-10.1,23.4-14,.7-.3,1.4-.7,2.1-1,12.2-5.6,25.7-8.9,39.1-7.2,14.3,1.8,27.5,9.1,41.8,10.1,10.7.7,21.3-2.2,31.6-5.4,24.9-7.8,50.5-18.4,66.5-39.1,3.2-4.2,6-10.2,2.9-14.5-3-4.1-9.4-3.5-14.2-1.6-9.5,3.6-17.6,10-26.6,14.8-6.7,3.6-14.4,6.2-21.8,5.9"/>
      <path class="st0" d="M118.6,245c.4,2.2.7,4.3.6,6.5-.2,4.5-2.2,9.1-6,11.4-3.6,2.1-8.2,1.8-12,0-2.2-1-4.2-2.4-6-4-1.3-1.1-2.5-2.4-3.7-3.7-14.7-15.9-23.9-36.9-25.5-58.5v-.5c-.2-3.7,0-7.8,3-10.1,2.4-1.8,5.8-1.7,8.6-.4.9.4,1.7.9,2.5,1.5"/>
      <path class="st0" d="M6,223.3c19.9-14.7,41.7-27.2,64.1-37.8"/>
      <path class="st0" d="M113.7,262.6c-25,15.9-50,31.7-74.9,47.6"/>
      <path class="st0" d="M22.3,211.9c-1.1,5.4-1,11.1-.1,16.6,1.5,9,5,17.5,9.1,25.6,5.1,10.1,11,19.8,18.7,28.1,4.2,4.5,9,8.6,14.2,11.9h0"/>
      <path class="st0" d="M52.9,217.9c-1.9-3.2-6.5-4.4-9.7-2.5s-4.3,6.5-2.4,9.7c1.9,3.2,6.4,4.5,9.7,2.8s4.7-6,2.4-10.1h0Z"/>
    </g>
  </g>
</svg>