<?xml version="1.0" encoding="UTF-8"?>
<svg id="Layer_1" xmlns="http://www.w3.org/2000/svg" version="1.1" viewBox="0 0 305.6 355.8">
  <!-- Generator: Adobe Illustrator 29.5.1, SVG Export Plug-In . SVG Version: 2.1.0 Build 141)  -->
  <defs>
    <style>
      .st0 {
        fill: none;
        stroke: #6fbcb2;
        stroke-linecap: round;
        stroke-linejoin: round;
        stroke-width: 7.7px;
      }
    </style>
  </defs>
  <path class="st0" d="M153.1,232.7c10.8,0,21.7,6.4,25.2,19.3,1.1,4,2,8.2,2.9,12.3,9.6,50.1,12.6,87.5,39.7,87.5s48.9-46.9,48.9-104.9,7.2-58.8,19.7-84.3c7.8-15.9,12.2-34.6,12.2-54.7,0-57.1-36.9-97.6-81.5-103.5-15.5-2-23.5,1.9-33.2,4.5-22.9,6.1-46.9,6.2-70,0-9.7-2.5-20.4-4.5-31.1-4.5C41.1,4.5,11.2,51.2,4.5,108c-2.7,23,2.8,22.4,12.2,54.7,12.6,25.6,19.4,53.4,19.7,81.9v2.4c0,58,21.9,104.9,48.9,104.9s30.1-37.4,39.7-87.5c.8-4.3,1.8-8.4,2.9-12.3,3.4-12.8,14.3-19.3,25.2-19.3h0Z"/>
  <path class="st0" d="M217.7,29.5c0,34.9-28.3,63.3-63.3,63.3s-63.3-28.3-63.3-63.3"/>
  <line class="st0" x1="118.9" y1="32.7" x2="114.6" y2="37"/>
  <line class="st0" x1="152.6" y1="38.2" x2="132.3" y2="58.6"/>
  <line class="st0" x1="192.8" y1="37.4" x2="161.4" y2="68.8"/>
</svg>