<?xml version="1.0" encoding="utf-8"?>
<!-- Generator: Adobe Illustrator 26.3.1, SVG Export Plug-In . SVG Version: 6.00 Build 0)  -->
<svg version="1.1" id="Layer_2_00000067950398731260964270000005664465201184727179_"
	 xmlns="http://www.w3.org/2000/svg" xmlns:xlink="http://www.w3.org/1999/xlink" x="0px" y="0px" viewBox="0 0 293.9 64.7"
	 style="enable-background:new 0 0 293.9 64.7;" xml:space="preserve">
<style type="text/css">
	.st0{fill:#52BDB2;}
	.st1{fill:#005982;}
</style>
<g>
	<g>
		<g>
			<g>
				<path class="st0" d="M91.6,15.1c-0.4-0.6-0.8-1.1-1.4-1.5c-0.6-0.4-1.2-0.8-1.9-1c-0.7-0.2-1.4-0.4-2.2-0.4
					c-1.4,0-2.6,0.3-3.5,0.8c-1,0.5-1.8,1.3-2.4,2.2c-0.6,0.9-1,1.9-1.3,3.1c-0.3,1.1-0.4,2.3-0.4,3.6c0,1.2,0.1,2.3,0.4,3.4
					c0.3,1.1,0.7,2.1,1.3,3c0.6,0.9,1.4,1.6,2.4,2.1c1,0.5,2.2,0.8,3.5,0.8c1.9,0,3.4-0.6,4.4-1.7c1.1-1.1,1.7-2.7,1.9-4.5h6
					c-0.2,1.7-0.6,3.3-1.2,4.7c-0.7,1.4-1.5,2.6-2.6,3.6c-1.1,1-2.3,1.7-3.8,2.3c-1.4,0.5-3,0.8-4.8,0.8c-2.2,0-4.1-0.4-5.8-1.1
					c-1.7-0.7-3.2-1.8-4.3-3.1c-1.2-1.3-2.1-2.8-2.7-4.6c-0.6-1.8-0.9-3.7-0.9-5.7c0-2.1,0.3-4,0.9-5.8c0.6-1.8,1.5-3.3,2.7-4.7
					c1.2-1.3,2.6-2.4,4.3-3.1C82.1,7.3,84,7,86.2,7c1.5,0,3,0.2,4.4,0.7c1.4,0.4,2.6,1.1,3.7,1.9c1.1,0.8,2,1.9,2.7,3.1
					c0.7,1.3,1.2,2.7,1.3,4.3h-6C92.2,16.3,92,15.7,91.6,15.1z"/>
				<path class="st0" d="M107.5,15.3v3.8h0.1c0.3-0.6,0.6-1.2,1.1-1.7c0.4-0.5,1-1,1.5-1.4c0.6-0.4,1.2-0.7,1.9-0.9
					c0.7-0.2,1.3-0.3,2-0.3c0.4,0,0.8,0.1,1.2,0.2v5.2c-0.3-0.1-0.6-0.1-0.9-0.1c-0.4,0-0.7-0.1-1.1-0.1c-1,0-1.9,0.2-2.6,0.5
					c-0.7,0.3-1.3,0.8-1.7,1.4c-0.4,0.6-0.7,1.3-0.9,2.1c-0.2,0.8-0.3,1.6-0.3,2.5v9.1h-5.6V15.3H107.5z"/>
				<path class="st0" d="M116.9,21.1c0.5-1.3,1.2-2.4,2.1-3.4c0.9-0.9,2-1.6,3.3-2.2c1.3-0.5,2.7-0.8,4.3-0.8c1.6,0,3.1,0.3,4.3,0.8
					c1.3,0.5,2.4,1.2,3.3,2.2c0.9,0.9,1.6,2,2.1,3.4c0.5,1.3,0.7,2.8,0.7,4.4c0,1.6-0.2,3.1-0.7,4.4c-0.5,1.3-1.2,2.4-2.1,3.3
					c-0.9,0.9-2,1.6-3.3,2.1c-1.3,0.5-2.7,0.7-4.3,0.7c-1.6,0-3-0.2-4.3-0.7c-1.3-0.5-2.4-1.2-3.3-2.1c-0.9-0.9-1.6-2-2.1-3.3
					c-0.5-1.3-0.7-2.8-0.7-4.4C116.1,23.8,116.4,22.4,116.9,21.1z M122,27.8c0.2,0.8,0.4,1.5,0.8,2.1c0.4,0.6,0.9,1.1,1.5,1.5
					c0.6,0.4,1.4,0.5,2.4,0.5s1.7-0.2,2.4-0.5c0.6-0.4,1.2-0.9,1.5-1.5c0.4-0.6,0.6-1.3,0.8-2.1c0.2-0.8,0.2-1.6,0.2-2.4
					c0-0.8-0.1-1.6-0.2-2.4c-0.2-0.8-0.4-1.5-0.8-2.1c-0.4-0.6-0.9-1.1-1.5-1.5c-0.6-0.4-1.4-0.6-2.4-0.6s-1.7,0.2-2.4,0.6
					c-0.6,0.4-1.1,0.9-1.5,1.5c-0.4,0.6-0.6,1.3-0.8,2.1c-0.2,0.8-0.2,1.6-0.2,2.4C121.7,26.3,121.8,27.1,122,27.8z"/>
				<path class="st0" d="M145.5,30.5c0.2,0.4,0.6,0.8,1,1.1c0.4,0.3,0.8,0.5,1.4,0.6c0.5,0.1,1,0.2,1.6,0.2c0.4,0,0.8,0,1.2-0.1
					c0.4-0.1,0.8-0.2,1.2-0.4c0.4-0.2,0.6-0.5,0.9-0.8c0.2-0.3,0.4-0.7,0.4-1.2c0-0.8-0.6-1.5-1.7-1.9c-1.1-0.4-2.7-0.8-4.7-1.3
					c-0.8-0.2-1.6-0.4-2.4-0.6c-0.8-0.2-1.5-0.6-2.1-1c-0.6-0.4-1.1-0.9-1.5-1.5c-0.4-0.6-0.6-1.4-0.6-2.2c0-1.3,0.3-2.4,0.8-3.2
					c0.5-0.8,1.2-1.5,2-2c0.8-0.5,1.8-0.8,2.8-1c1-0.2,2.1-0.3,3.2-0.3s2.2,0.1,3.2,0.3c1,0.2,2,0.6,2.8,1.1c0.8,0.5,1.5,1.2,2,2
					c0.5,0.8,0.9,1.9,1,3.1h-5.3c-0.1-1.1-0.5-1.8-1.2-2.2c-0.7-0.4-1.6-0.6-2.6-0.6c-0.3,0-0.7,0-1,0.1c-0.4,0-0.7,0.1-1,0.3
					c-0.3,0.1-0.6,0.3-0.8,0.6c-0.2,0.2-0.3,0.6-0.3,1c0,0.5,0.2,0.9,0.6,1.2c0.4,0.3,0.8,0.6,1.4,0.8c0.6,0.2,1.3,0.4,2,0.5
					c0.8,0.2,1.5,0.3,2.3,0.5c0.8,0.2,1.6,0.4,2.4,0.7c0.8,0.3,1.5,0.6,2.1,1c0.6,0.4,1.1,1,1.5,1.6c0.4,0.6,0.6,1.4,0.6,2.4
					c0,1.3-0.3,2.4-0.8,3.3c-0.5,0.9-1.2,1.6-2.1,2.2c-0.9,0.5-1.9,0.9-3,1.2c-1.1,0.2-2.3,0.3-3.4,0.3c-1.2,0-2.3-0.1-3.5-0.4
					c-1.1-0.2-2.1-0.6-3-1.2c-0.9-0.5-1.6-1.3-2.2-2.2c-0.6-0.9-0.9-2-0.9-3.4h5.3C145.1,29.6,145.3,30.1,145.5,30.5z"/>
				<path class="st0" d="M166.6,30.5c0.2,0.4,0.6,0.8,1,1.1c0.4,0.3,0.8,0.5,1.4,0.6c0.5,0.1,1,0.2,1.6,0.2c0.4,0,0.8,0,1.2-0.1
					c0.4-0.1,0.8-0.2,1.2-0.4c0.4-0.2,0.6-0.5,0.9-0.8c0.2-0.3,0.4-0.7,0.4-1.2c0-0.8-0.6-1.5-1.7-1.9c-1.1-0.4-2.7-0.8-4.7-1.3
					c-0.8-0.2-1.6-0.4-2.4-0.6c-0.8-0.2-1.5-0.6-2.1-1c-0.6-0.4-1.1-0.9-1.5-1.5c-0.4-0.6-0.6-1.4-0.6-2.2c0-1.3,0.3-2.4,0.8-3.2
					c0.5-0.8,1.2-1.5,2-2c0.8-0.5,1.8-0.8,2.8-1c1-0.2,2.1-0.3,3.2-0.3c1.1,0,2.2,0.1,3.2,0.3c1,0.2,2,0.6,2.8,1.1
					c0.8,0.5,1.5,1.2,2,2c0.5,0.8,0.9,1.9,1,3.1h-5.3c-0.1-1.1-0.5-1.8-1.2-2.2c-0.7-0.4-1.6-0.6-2.6-0.6c-0.3,0-0.7,0-1,0.1
					c-0.4,0-0.7,0.1-1,0.3c-0.3,0.1-0.6,0.3-0.8,0.6c-0.2,0.2-0.3,0.6-0.3,1c0,0.5,0.2,0.9,0.6,1.2c0.4,0.3,0.8,0.6,1.4,0.8
					c0.6,0.2,1.3,0.4,2,0.5c0.8,0.2,1.5,0.3,2.3,0.5c0.8,0.2,1.6,0.4,2.4,0.7c0.8,0.3,1.5,0.6,2.1,1c0.6,0.4,1.1,1,1.5,1.6
					c0.4,0.6,0.6,1.4,0.6,2.4c0,1.3-0.3,2.4-0.8,3.3c-0.5,0.9-1.2,1.6-2.1,2.2c-0.9,0.5-1.9,0.9-3,1.2c-1.1,0.2-2.3,0.3-3.4,0.3
					c-1.2,0-2.3-0.1-3.5-0.4c-1.1-0.2-2.1-0.6-3-1.2c-0.9-0.5-1.6-1.3-2.2-2.2c-0.6-0.9-0.9-2-0.9-3.4h5.3
					C166.3,29.6,166.4,30.1,166.6,30.5z"/>
				<path class="st0" d="M188.4,15.3v3.8h0.1c0.3-0.6,0.6-1.2,1.1-1.7c0.4-0.5,1-1,1.5-1.4c0.6-0.4,1.2-0.7,1.9-0.9
					c0.7-0.2,1.3-0.3,2-0.3c0.4,0,0.8,0.1,1.2,0.2v5.2c-0.3-0.1-0.6-0.1-0.9-0.1c-0.4,0-0.7-0.1-1.1-0.1c-1,0-1.9,0.2-2.6,0.5
					c-0.7,0.3-1.3,0.8-1.7,1.4c-0.4,0.6-0.7,1.3-0.9,2.1c-0.2,0.8-0.3,1.6-0.3,2.5v9.1h-5.6V15.3H188.4z"/>
				<path class="st0" d="M197.8,21.1c0.5-1.3,1.2-2.4,2.1-3.4c0.9-0.9,2-1.6,3.3-2.2c1.3-0.5,2.7-0.8,4.3-0.8c1.6,0,3.1,0.3,4.3,0.8
					c1.3,0.5,2.4,1.2,3.3,2.2c0.9,0.9,1.6,2,2.1,3.4c0.5,1.3,0.7,2.8,0.7,4.4c0,1.6-0.2,3.1-0.7,4.4c-0.5,1.3-1.2,2.4-2.1,3.3
					c-0.9,0.9-2,1.6-3.3,2.1c-1.3,0.5-2.7,0.7-4.3,0.7c-1.6,0-3-0.2-4.3-0.7c-1.3-0.5-2.4-1.2-3.3-2.1c-0.9-0.9-1.6-2-2.1-3.3
					c-0.5-1.3-0.7-2.8-0.7-4.4C197.1,23.8,197.3,22.4,197.8,21.1z M202.9,27.8c0.2,0.8,0.4,1.5,0.8,2.1c0.4,0.6,0.9,1.1,1.5,1.5
					c0.6,0.4,1.4,0.5,2.4,0.5c0.9,0,1.7-0.2,2.4-0.5c0.6-0.4,1.2-0.9,1.5-1.5c0.4-0.6,0.6-1.3,0.8-2.1c0.2-0.8,0.2-1.6,0.2-2.4
					c0-0.8-0.1-1.6-0.2-2.4c-0.2-0.8-0.4-1.5-0.8-2.1c-0.4-0.6-0.9-1.1-1.5-1.5c-0.6-0.4-1.4-0.6-2.4-0.6c-0.9,0-1.7,0.2-2.4,0.6
					c-0.6,0.4-1.1,0.9-1.5,1.5c-0.4,0.6-0.6,1.3-0.8,2.1c-0.2,0.8-0.2,1.6-0.2,2.4C202.6,26.3,202.7,27.1,202.9,27.8z"/>
				<path class="st0" d="M221.5,21.6c0.1-1.3,0.4-2.4,1-3.2c0.6-0.9,1.3-1.6,2.2-2.1c0.9-0.5,1.9-0.9,3-1.1c1.1-0.2,2.2-0.3,3.4-0.3
					c1,0,2.1,0.1,3.1,0.2c1,0.1,2,0.4,2.9,0.8c0.9,0.4,1.6,1,2.1,1.7c0.6,0.7,0.8,1.7,0.8,3V31c0,0.9,0.1,1.8,0.2,2.6
					c0.1,0.8,0.3,1.5,0.6,1.9H235c-0.1-0.3-0.2-0.6-0.3-1c-0.1-0.3-0.1-0.7-0.1-1c-0.9,0.9-1.9,1.6-3.1,1.9
					c-1.2,0.4-2.4,0.5-3.7,0.5c-1,0-1.9-0.1-2.7-0.4c-0.8-0.2-1.6-0.6-2.2-1.1c-0.6-0.5-1.1-1.1-1.5-1.9c-0.4-0.8-0.5-1.7-0.5-2.7
					c0-1.1,0.2-2.1,0.6-2.8c0.4-0.7,0.9-1.3,1.6-1.8c0.6-0.4,1.4-0.8,2.2-1c0.8-0.2,1.7-0.4,2.5-0.5c0.8-0.1,1.7-0.2,2.5-0.3
					c0.8-0.1,1.5-0.2,2.2-0.4c0.6-0.2,1.1-0.4,1.5-0.7c0.4-0.3,0.5-0.7,0.5-1.3c0-0.6-0.1-1.1-0.3-1.4c-0.2-0.4-0.5-0.6-0.8-0.8
					c-0.3-0.2-0.7-0.3-1.1-0.4c-0.4-0.1-0.9-0.1-1.4-0.1c-1.1,0-2,0.2-2.6,0.7c-0.6,0.5-1,1.3-1.1,2.3H221.5z M234.4,25.7
					c-0.2,0.2-0.5,0.4-0.9,0.5c-0.4,0.1-0.7,0.2-1.1,0.3c-0.4,0.1-0.8,0.1-1.3,0.2c-0.4,0.1-0.9,0.1-1.3,0.2
					c-0.4,0.1-0.8,0.2-1.2,0.3c-0.4,0.1-0.8,0.3-1.1,0.5c-0.3,0.2-0.5,0.5-0.7,0.8c-0.2,0.3-0.3,0.8-0.3,1.3c0,0.5,0.1,0.9,0.3,1.3
					c0.2,0.3,0.4,0.6,0.7,0.8c0.3,0.2,0.7,0.3,1.1,0.4c0.4,0.1,0.9,0.1,1.3,0.1c1.1,0,2-0.2,2.6-0.5c0.6-0.4,1-0.8,1.3-1.3
					c0.3-0.5,0.5-1,0.5-1.5c0.1-0.5,0.1-0.9,0.1-1.3V25.7z"/>
				<path class="st0" d="M258.8,33c-0.7,1.1-1.5,1.9-2.6,2.4c-1.1,0.5-2.3,0.7-3.6,0.7c-1.5,0-2.9-0.3-4-0.9
					c-1.2-0.6-2.1-1.4-2.9-2.4c-0.7-1-1.3-2.2-1.7-3.5c-0.4-1.3-0.6-2.7-0.6-4.1c0-1.4,0.2-2.7,0.6-3.9c0.4-1.3,0.9-2.4,1.7-3.3
					c0.7-1,1.7-1.7,2.8-2.3c1.1-0.6,2.4-0.9,3.9-0.9c1.2,0,2.4,0.3,3.4,0.8c1.1,0.5,1.9,1.3,2.6,2.2h0.1V7.6h5.6v27.9h-5.3L258.8,33
					L258.8,33z M258.5,23c-0.2-0.8-0.4-1.4-0.8-2c-0.4-0.6-0.9-1.1-1.5-1.4c-0.6-0.4-1.4-0.5-2.3-0.5s-1.7,0.2-2.3,0.5
					c-0.6,0.4-1.1,0.8-1.5,1.4c-0.4,0.6-0.7,1.3-0.8,2.1c-0.2,0.8-0.3,1.6-0.3,2.4c0,0.8,0.1,1.6,0.3,2.3c0.2,0.8,0.5,1.5,0.9,2.1
					c0.4,0.6,0.9,1.1,1.5,1.5c0.6,0.4,1.4,0.6,2.2,0.6c0.9,0,1.7-0.2,2.3-0.5c0.6-0.4,1.1-0.9,1.5-1.5c0.4-0.6,0.6-1.3,0.8-2.1
					c0.2-0.8,0.2-1.6,0.2-2.4C258.8,24.5,258.7,23.7,258.5,23z"/>
				<path class="st0" d="M273.1,30.5c0.2,0.4,0.6,0.8,1,1.1c0.4,0.3,0.8,0.5,1.4,0.6c0.5,0.1,1,0.2,1.6,0.2c0.4,0,0.8,0,1.2-0.1
					c0.4-0.1,0.8-0.2,1.2-0.4c0.4-0.2,0.6-0.5,0.9-0.8c0.2-0.3,0.4-0.7,0.4-1.2c0-0.8-0.6-1.5-1.7-1.9c-1.1-0.4-2.7-0.8-4.7-1.3
					c-0.8-0.2-1.6-0.4-2.4-0.6c-0.8-0.2-1.5-0.6-2.1-1c-0.6-0.4-1.1-0.9-1.5-1.5c-0.4-0.6-0.6-1.4-0.6-2.2c0-1.3,0.3-2.4,0.8-3.2
					c0.5-0.8,1.2-1.5,2-2c0.8-0.5,1.8-0.8,2.8-1c1-0.2,2.1-0.3,3.2-0.3s2.2,0.1,3.2,0.3c1,0.2,2,0.6,2.8,1.1c0.8,0.5,1.5,1.2,2,2
					c0.5,0.8,0.9,1.9,1,3.1h-5.3c-0.1-1.1-0.5-1.8-1.2-2.2c-0.7-0.4-1.6-0.6-2.6-0.6c-0.3,0-0.7,0-1,0.1c-0.4,0-0.7,0.1-1,0.3
					c-0.3,0.1-0.6,0.3-0.8,0.6c-0.2,0.2-0.3,0.6-0.3,1c0,0.5,0.2,0.9,0.6,1.2c0.4,0.3,0.8,0.6,1.4,0.8c0.6,0.2,1.3,0.4,2,0.5
					c0.8,0.2,1.5,0.3,2.3,0.5c0.8,0.2,1.6,0.4,2.4,0.7c0.8,0.3,1.5,0.6,2.1,1c0.6,0.4,1.1,1,1.5,1.6c0.4,0.6,0.6,1.4,0.6,2.4
					c0,1.3-0.3,2.4-0.8,3.3c-0.5,0.9-1.2,1.6-2.1,2.2c-0.9,0.5-1.9,0.9-3,1.2c-1.1,0.2-2.3,0.3-3.4,0.3c-1.2,0-2.3-0.1-3.5-0.4
					c-1.1-0.2-2.1-0.6-3-1.2c-0.9-0.5-1.6-1.3-2.2-2.2c-0.6-0.9-0.9-2-0.9-3.4h5.3C272.7,29.6,272.8,30.1,273.1,30.5z"/>
			</g>
			<g>
				<g>
					<path class="st1" d="M72.4,45.8h4.7c1.3,0,2.4,0.2,3.2,0.6c0.9,0.4,1.5,0.9,2.1,1.6c0.5,0.7,0.9,1.4,1.1,2.3
						c0.2,0.9,0.3,1.7,0.3,2.7c0,1-0.1,2-0.4,2.9c-0.3,0.9-0.7,1.6-1.2,2.3c-0.6,0.6-1.3,1.2-2.1,1.5c-0.8,0.4-1.9,0.6-3,0.6h-4.7
						V45.8z M77.1,59.4c0.7,0,1.4-0.1,2-0.3c0.7-0.2,1.3-0.6,1.9-1c0.6-0.5,1-1.1,1.3-2c0.3-0.8,0.5-1.9,0.5-3.1
						c0-1-0.1-1.8-0.3-2.5c-0.2-0.7-0.5-1.3-0.8-1.8c-0.3-0.5-0.7-0.9-1.1-1.1c-0.4-0.3-0.8-0.5-1.3-0.6c-0.4-0.1-0.9-0.2-1.3-0.3
						c-0.4,0-0.8-0.1-1.2-0.1h-3.7v12.9H77.1z"/>
					<path class="st1" d="M88.1,55.1v0.1c0,0.6,0.1,1.2,0.2,1.7c0.2,0.6,0.4,1,0.7,1.5c0.3,0.4,0.7,0.7,1.2,1c0.5,0.2,1,0.4,1.7,0.4
						c1,0,1.9-0.3,2.5-0.8c0.6-0.5,1-1.3,1.3-2.3h0.8c-0.2,1.2-0.7,2.1-1.5,2.8c-0.8,0.6-1.8,1-3,1c-0.8,0-1.4-0.1-2-0.4
						c-0.6-0.3-1.1-0.7-1.4-1.1c-0.4-0.5-0.7-1-0.9-1.7c-0.2-0.7-0.3-1.4-0.3-2.1c0-0.7,0.1-1.4,0.3-2.1c0.2-0.7,0.5-1.2,0.9-1.8
						c0.4-0.5,0.9-0.9,1.5-1.2c0.6-0.3,1.3-0.5,2.1-0.5c0.7,0,1.4,0.1,1.9,0.4c0.6,0.3,1,0.6,1.4,1.1c0.4,0.5,0.7,1,0.9,1.6
						c0.2,0.6,0.3,1.3,0.3,2c0,0.1,0,0.1,0,0.2c0,0.1,0,0.2,0,0.2H88.1z M95.7,54.5c0-0.6-0.1-1.1-0.3-1.6c-0.2-0.5-0.4-0.9-0.7-1.3
						c-0.3-0.4-0.7-0.7-1.2-0.9c-0.5-0.2-1-0.3-1.6-0.3c-0.6,0-1.2,0.1-1.6,0.4c-0.5,0.2-0.9,0.5-1.2,0.9c-0.3,0.4-0.6,0.8-0.8,1.3
						c-0.2,0.5-0.3,1-0.3,1.6H95.7z"/>
					<path class="st1" d="M100.3,49.8h0.8v2.2h0c0.1-0.4,0.3-0.7,0.6-1c0.2-0.3,0.5-0.6,0.9-0.8c0.3-0.2,0.7-0.4,1.1-0.5
						c0.4-0.1,0.8-0.2,1.2-0.2c0.6,0,1.1,0.1,1.6,0.2c0.4,0.1,0.8,0.3,1,0.6c0.3,0.2,0.5,0.5,0.6,0.8c0.2,0.3,0.3,0.6,0.3,0.9
						c0.1,0.3,0.1,0.6,0.1,0.9c0,0.3,0,0.5,0,0.8v6.4h-0.8v-6.6c0-0.3,0-0.6-0.1-1c0-0.4-0.2-0.8-0.4-1.1c-0.2-0.4-0.5-0.7-0.9-0.9
						c-0.4-0.3-1-0.4-1.7-0.4c-0.6,0-1.1,0.1-1.6,0.3c-0.5,0.2-0.9,0.5-1.2,0.9c-0.3,0.4-0.6,0.8-0.7,1.4s-0.3,1.1-0.3,1.7v5.6h-0.8
						V49.8z"/>
					<path class="st1" d="M116.7,50.5h-2.3v7.2c0,0.4,0,0.7,0.1,1c0.1,0.2,0.2,0.4,0.4,0.6c0.2,0.1,0.4,0.2,0.7,0.2c0.3,0,0.6,0,1,0
						v0.7c-0.4,0-0.8,0-1.1,0c-0.4,0-0.7-0.1-1-0.3c-0.3-0.2-0.5-0.4-0.7-0.8c-0.2-0.3-0.2-0.8-0.2-1.4v-7.2h-1.9v-0.7h1.9v-3.2h0.8
						v3.2h2.3V50.5z"/>
					<path class="st1" d="M127.1,58.1L127.1,58.1c-0.2,0.3-0.3,0.6-0.6,0.9c-0.2,0.3-0.5,0.5-0.8,0.7c-0.3,0.2-0.7,0.4-1.1,0.5
						c-0.4,0.1-0.9,0.2-1.4,0.2c-1.1,0-2-0.2-2.6-0.7c-0.6-0.5-0.9-1.2-0.9-2.2c0-0.6,0.1-1.1,0.4-1.5c0.2-0.4,0.6-0.7,0.9-0.9
						c0.4-0.2,0.8-0.4,1.2-0.5c0.5-0.1,0.9-0.2,1.3-0.2l1.2-0.1c0.6,0,1-0.1,1.3-0.2c0.3-0.1,0.6-0.2,0.7-0.4
						c0.2-0.2,0.3-0.4,0.3-0.6c0-0.2,0.1-0.5,0.1-0.9c0-0.3-0.1-0.5-0.2-0.8c-0.1-0.2-0.3-0.5-0.5-0.6c-0.2-0.2-0.5-0.3-0.9-0.4
						c-0.4-0.1-0.8-0.2-1.3-0.2c-0.9,0-1.7,0.2-2.3,0.7c-0.6,0.5-0.9,1.1-0.9,2.1h-0.8c0.1-1.1,0.4-2,1.1-2.6
						c0.7-0.6,1.7-0.9,2.9-0.9c1.3,0,2.2,0.2,2.8,0.7c0.6,0.5,0.9,1.1,0.9,1.9v6c0,0.1,0,0.3,0,0.4c0,0.1,0,0.3,0.1,0.4
						c0,0.1,0.1,0.2,0.2,0.3c0.1,0.1,0.2,0.1,0.4,0.1c0.1,0,0.3,0,0.6-0.1v0.6c-0.2,0.1-0.4,0.1-0.6,0.1c-0.3,0-0.6,0-0.7-0.1
						c-0.2-0.1-0.3-0.2-0.4-0.3c-0.1-0.1-0.2-0.3-0.2-0.5c0-0.2-0.1-0.4-0.1-0.6V58.1z M127.1,54.3c-0.2,0.2-0.5,0.4-0.9,0.5
						c-0.4,0.1-0.8,0.1-1.3,0.2l-1.3,0.1c-0.4,0-0.8,0.1-1.1,0.2c-0.4,0.1-0.7,0.2-1,0.4c-0.3,0.2-0.6,0.4-0.7,0.7
						c-0.2,0.3-0.3,0.7-0.3,1.2c0,0.8,0.2,1.3,0.7,1.7c0.5,0.4,1.2,0.6,2,0.6c0.9,0,1.6-0.2,2.1-0.5c0.5-0.3,0.9-0.7,1.2-1.1
						c0.3-0.4,0.4-0.8,0.5-1.2c0.1-0.4,0.1-0.6,0.1-0.8V54.3z"/>
					<path class="st1" d="M133.3,45.8v14.4h-0.8V45.8H133.3z"/>
					<path class="st1" d="M145.1,53c0-1,0.2-2,0.5-3c0.3-0.9,0.8-1.7,1.3-2.4c0.6-0.7,1.3-1.2,2.2-1.6c0.9-0.4,1.8-0.6,2.9-0.6
						c0.9,0,1.6,0.1,2.2,0.3c0.6,0.2,1.1,0.5,1.6,0.8c0.4,0.3,0.8,0.7,1,1.1c0.3,0.4,0.5,0.8,0.6,1.1c0.1,0.3,0.2,0.6,0.3,0.9
						c0.1,0.2,0.1,0.4,0.1,0.4h-0.9c-0.1-0.6-0.3-1.1-0.6-1.6c-0.3-0.5-0.7-0.9-1.1-1.2c-0.4-0.3-0.9-0.6-1.5-0.8
						c-0.5-0.2-1.1-0.3-1.7-0.3c-0.9,0-1.8,0.2-2.5,0.5c-0.7,0.4-1.4,0.8-1.9,1.5c-0.5,0.6-0.9,1.3-1.2,2.1
						c-0.3,0.8-0.4,1.7-0.4,2.6c0,0.9,0.1,1.8,0.4,2.6c0.3,0.8,0.7,1.5,1.2,2.1c0.5,0.6,1.1,1.1,1.9,1.5c0.7,0.4,1.6,0.5,2.5,0.5
						c0.7,0,1.4-0.1,2-0.4c0.6-0.3,1.2-0.7,1.6-1.1c0.5-0.5,0.8-1,1.1-1.7c0.3-0.6,0.4-1.3,0.5-1.9h0.9c-0.1,0.9-0.3,1.7-0.6,2.4
						c-0.3,0.7-0.8,1.4-1.3,1.9c-0.5,0.5-1.2,0.9-1.9,1.2c-0.7,0.3-1.5,0.4-2.3,0.4c-1.1,0-2.1-0.2-2.9-0.6
						c-0.9-0.4-1.6-0.9-2.2-1.6c-0.6-0.7-1-1.5-1.3-2.4C145.2,55,145.1,54.1,145.1,53z"/>
					<path class="st1" d="M162.8,45.8v14.4H162V45.8H162.8z"/>
					<path class="st1" d="M167.4,47.9v-2.1h0.8v2.1H167.4z M167.4,60.2V49.8h0.8v10.4H167.4z"/>
					<path class="st1" d="M172.7,49.8h0.8v2.2h0c0.1-0.4,0.3-0.7,0.6-1c0.2-0.3,0.5-0.6,0.9-0.8c0.3-0.2,0.7-0.4,1.1-0.5
						c0.4-0.1,0.8-0.2,1.2-0.2c0.6,0,1.1,0.1,1.6,0.2c0.4,0.1,0.8,0.3,1,0.6c0.3,0.2,0.5,0.5,0.6,0.8c0.2,0.3,0.3,0.6,0.3,0.9
						c0.1,0.3,0.1,0.6,0.1,0.9c0,0.3,0,0.5,0,0.8v6.4h-0.8v-6.6c0-0.3,0-0.6-0.1-1c0-0.4-0.2-0.8-0.4-1.1c-0.2-0.4-0.5-0.7-0.9-0.9
						c-0.4-0.3-1-0.4-1.7-0.4c-0.6,0-1.1,0.1-1.6,0.3c-0.5,0.2-0.9,0.5-1.2,0.9c-0.3,0.4-0.6,0.8-0.7,1.4c-0.2,0.5-0.3,1.1-0.3,1.7
						v5.6h-0.8V49.8z"/>
					<path class="st1" d="M185.4,47.9v-2.1h0.8v2.1H185.4z M185.4,60.2V49.8h0.8v10.4H185.4z"/>
					<path class="st1" d="M198.5,53c0-0.5-0.2-0.9-0.4-1.2c-0.2-0.3-0.5-0.6-0.8-0.9c-0.3-0.2-0.7-0.4-1.1-0.5
						c-0.4-0.1-0.9-0.2-1.3-0.2c-0.6,0-1.2,0.1-1.7,0.4c-0.5,0.3-0.9,0.6-1.3,1c-0.3,0.4-0.6,0.9-0.8,1.5c-0.2,0.6-0.3,1.1-0.3,1.7
						c0,0.7,0.1,1.3,0.2,1.9c0.2,0.6,0.4,1.1,0.8,1.5c0.3,0.4,0.8,0.8,1.3,1c0.5,0.2,1.1,0.4,1.8,0.4c0.5,0,0.9-0.1,1.3-0.2
						c0.4-0.2,0.8-0.4,1.1-0.7c0.3-0.3,0.6-0.6,0.8-1c0.2-0.4,0.3-0.8,0.4-1.3h0.8c-0.1,0.6-0.3,1.2-0.5,1.7c-0.3,0.5-0.6,0.9-1,1.2
						c-0.4,0.3-0.8,0.6-1.3,0.8c-0.5,0.2-1,0.3-1.6,0.3c-0.9,0-1.6-0.2-2.2-0.5c-0.6-0.3-1.1-0.7-1.5-1.2c-0.4-0.5-0.7-1.1-0.9-1.8
						c-0.2-0.7-0.3-1.4-0.3-2.1c0-0.7,0.1-1.4,0.3-2.1c0.2-0.6,0.5-1.2,0.9-1.7c0.4-0.5,0.9-0.9,1.5-1.1c0.6-0.3,1.3-0.4,2.1-0.4
						c0.6,0,1.1,0.1,1.6,0.2c0.5,0.1,0.9,0.4,1.3,0.6s0.7,0.6,0.9,1.1c0.2,0.4,0.4,0.9,0.4,1.5H198.5z"/>
				</g>
			</g>
		</g>
		<g>
			<g>
				<path class="st0" d="M61.8,14.2C59.1,7.6,52.9,2.9,45.6,2.3c-7.8-0.6-14,2.5-18.3,9c-1,1.6-1.7,3.4-2.3,5.1l8.7,13.8L61.8,14.2z
					"/>
				<path class="st0" d="M17.4,47.1c4.6,4.8,9.2,9.5,13.9,14.2c0.4,0.4,1,0.8,1.6,0.9c2.2,0.5,3.9-1,4-3.4c0-4.3,0-8.5,0-12.8
					l-4.7-7.4L17.4,47.1z"/>
				<path class="st0" d="M63.4,27.8c0-2.3,0-4.6-0.1-6.9l-26.1,15l4.8,7.6c0,0,0.1,0.1,0.1,0.1c0.5,0.5,0.9,1.1,1.4,1.6
					c3.5,4.3,7,8.6,10.6,12.9c1.1,1.4,2.6,2.2,4.4,2.4c3,0.3,4.9-1.3,4.9-4.3c0-5.8,0-11.6,0-17.3C63.4,35.1,63.4,31.5,63.4,27.8z"
					/>
				<path class="st0" d="M20.2,19.7c-0.4,0.1-0.8,0.3-1.2,0.4c-9.4,3.3-12.5,14.7-6.2,22.2l15.9-9.1L20.2,19.7z"/>
			</g>
		</g>
	</g>
</g>
</svg>
